<?xml version="1.0" encoding="UTF-8"?>
<!-- Do not edit this file with editors other than draw.io -->
<!DOCTYPE svg PUBLIC "-//W3C//DTD SVG 1.1//EN" "http://www.w3.org/Graphics/SVG/1.1/DTD/svg11.dtd">
<svg xmlns="http://www.w3.org/2000/svg" xmlns:xlink="http://www.w3.org/1999/xlink" version="1.1" width="304" height="182" viewBox="-0.5 -0.5 304 182" class="ge-export-svg-auto" content="&lt;mxfile host=&quot;app.diagrams.net&quot; modified=&quot;2024-06-03T16:28:18.329Z&quot; agent=&quot;Mozilla/5.0 (Windows NT 10.0; Win64; x64; rv:126.0) Gecko/20100101 Firefox/126.0&quot; etag=&quot;hWuU-kySmoxStiVOM2ze&quot; version=&quot;24.4.13&quot; type=&quot;github&quot; scale=&quot;1&quot; border=&quot;0&quot;&gt;&#xA;  &lt;diagram name=&quot;Page-1&quot; id=&quot;icNIoHToMT_jVfy2pEq0&quot;&gt;&#xA;    &lt;mxGraphModel dx=&quot;624&quot; dy=&quot;851&quot; grid=&quot;1&quot; gridSize=&quot;10&quot; guides=&quot;1&quot; tooltips=&quot;1&quot; connect=&quot;1&quot; arrows=&quot;1&quot; fold=&quot;1&quot; page=&quot;1&quot; pageScale=&quot;1&quot; pageWidth=&quot;850&quot; pageHeight=&quot;1100&quot; background=&quot;none&quot; math=&quot;0&quot; shadow=&quot;1&quot;&gt;&#xA;      &lt;root&gt;&#xA;        &lt;mxCell id=&quot;0&quot; /&gt;&#xA;        &lt;mxCell id=&quot;1&quot; parent=&quot;0&quot; /&gt;&#xA;        &lt;mxCell id=&quot;zpUPX1-AgP3qRpEjRh1N-46&quot; style=&quot;edgeStyle=orthogonalEdgeStyle;rounded=0;orthogonalLoop=1;jettySize=auto;html=1;textShadow=1;&quot; parent=&quot;1&quot; target=&quot;zpUPX1-AgP3qRpEjRh1N-38&quot; edge=&quot;1&quot;&gt;&#xA;          &lt;mxGeometry relative=&quot;1&quot; as=&quot;geometry&quot;&gt;&#xA;            &lt;mxPoint x=&quot;330&quot; y=&quot;1335&quot; as=&quot;sourcePoint&quot; /&gt;&#xA;          &lt;/mxGeometry&gt;&#xA;        &lt;/mxCell&gt;&#xA;        &lt;mxCell id=&quot;zpUPX1-AgP3qRpEjRh1N-41&quot; style=&quot;edgeStyle=orthogonalEdgeStyle;rounded=0;orthogonalLoop=1;jettySize=auto;html=1;textShadow=1;&quot; parent=&quot;1&quot; source=&quot;zpUPX1-AgP3qRpEjRh1N-38&quot; target=&quot;rPApMJbNqW60VbOYo9He-13&quot; edge=&quot;1&quot;&gt;&#xA;          &lt;mxGeometry relative=&quot;1&quot; as=&quot;geometry&quot;&gt;&#xA;            &lt;mxPoint x=&quot;501.29999999999984&quot; y=&quot;1377&quot; as=&quot;targetPoint&quot; /&gt;&#xA;          &lt;/mxGeometry&gt;&#xA;        &lt;/mxCell&gt;&#xA;        &lt;mxCell id=&quot;zpUPX1-AgP3qRpEjRh1N-42&quot; style=&quot;edgeStyle=orthogonalEdgeStyle;rounded=0;orthogonalLoop=1;jettySize=auto;html=1;textShadow=1;&quot; parent=&quot;1&quot; source=&quot;zpUPX1-AgP3qRpEjRh1N-38&quot; target=&quot;zpUPX1-AgP3qRpEjRh1N-39&quot; edge=&quot;1&quot;&gt;&#xA;          &lt;mxGeometry relative=&quot;1&quot; as=&quot;geometry&quot; /&gt;&#xA;        &lt;/mxCell&gt;&#xA;        &lt;mxCell id=&quot;zpUPX1-AgP3qRpEjRh1N-38&quot; value=&quot;&quot; style=&quot;sketch=0;outlineConnect=0;fontColor=#232F3E;gradientColor=none;fillColor=#232F3D;strokeColor=none;dashed=0;verticalLabelPosition=bottom;verticalAlign=top;align=center;html=1;fontSize=12;fontStyle=0;aspect=fixed;pointerEvents=1;shape=mxgraph.aws4.shield2;textShadow=1;&quot; parent=&quot;1&quot; vertex=&quot;1&quot;&gt;&#xA;          &lt;mxGeometry x=&quot;379&quot; y=&quot;1296&quot; width=&quot;78&quot; height=&quot;78&quot; as=&quot;geometry&quot; /&gt;&#xA;        &lt;/mxCell&gt;&#xA;        &lt;mxCell id=&quot;zpUPX1-AgP3qRpEjRh1N-39&quot; value=&quot;&quot; style=&quot;sketch=0;pointerEvents=1;shadow=0;dashed=0;html=1;strokeColor=none;fillColor=#505050;labelPosition=center;verticalLabelPosition=bottom;verticalAlign=top;outlineConnect=0;align=center;shape=mxgraph.office.concepts.document;textShadow=1;&quot; parent=&quot;1&quot; vertex=&quot;1&quot;&gt;&#xA;          &lt;mxGeometry x=&quot;521.05&quot; y=&quot;1249&quot; width=&quot;40&quot; height=&quot;47&quot; as=&quot;geometry&quot; /&gt;&#xA;        &lt;/mxCell&gt;&#xA;        &lt;mxCell id=&quot;zpUPX1-AgP3qRpEjRh1N-44&quot; value=&quot;&quot; style=&quot;sketch=0;html=1;aspect=fixed;strokeColor=none;shadow=0;align=center;fillColor=#2D9C5E;verticalAlign=top;labelPosition=center;verticalLabelPosition=bottom;shape=mxgraph.gcp2.check;textShadow=1;&quot; parent=&quot;1&quot; vertex=&quot;1&quot;&gt;&#xA;          &lt;mxGeometry x=&quot;510&quot; y=&quot;1300&quot; width=&quot;25&quot; height=&quot;20&quot; as=&quot;geometry&quot; /&gt;&#xA;        &lt;/mxCell&gt;&#xA;        &lt;mxCell id=&quot;zpUPX1-AgP3qRpEjRh1N-45&quot; value=&quot;&quot; style=&quot;shape=mxgraph.mockup.markup.redX;fillColor=#ff0000;html=1;shadow=0;whiteSpace=wrap;strokeColor=none;textShadow=1;&quot; parent=&quot;1&quot; vertex=&quot;1&quot;&gt;&#xA;          &lt;mxGeometry x=&quot;510&quot; y=&quot;1350&quot; width=&quot;19&quot; height=&quot;20&quot; as=&quot;geometry&quot; /&gt;&#xA;        &lt;/mxCell&gt;&#xA;        &lt;mxCell id=&quot;zpUPX1-AgP3qRpEjRh1N-47&quot; value=&quot;&quot; style=&quot;sketch=0;pointerEvents=1;shadow=0;dashed=0;html=1;strokeColor=none;fillColor=#505050;labelPosition=center;verticalLabelPosition=bottom;verticalAlign=top;outlineConnect=0;align=center;shape=mxgraph.office.concepts.writing_pencil;textShadow=1;&quot; parent=&quot;1&quot; vertex=&quot;1&quot;&gt;&#xA;          &lt;mxGeometry x=&quot;501.92&quot; y=&quot;1229&quot; width=&quot;30&quot; height=&quot;30&quot; as=&quot;geometry&quot; /&gt;&#xA;        &lt;/mxCell&gt;&#xA;        &lt;mxCell id=&quot;rPApMJbNqW60VbOYo9He-7&quot; value=&quot;&quot; style=&quot;sketch=0;pointerEvents=1;shadow=0;dashed=0;html=1;strokeColor=none;fillColor=#505050;labelPosition=center;verticalLabelPosition=bottom;verticalAlign=top;outlineConnect=0;align=center;shape=mxgraph.office.users.user;textShadow=1;&quot; parent=&quot;1&quot; vertex=&quot;1&quot;&gt;&#xA;          &lt;mxGeometry x=&quot;290&quot; y=&quot;1310&quot; width=&quot;46&quot; height=&quot;50&quot; as=&quot;geometry&quot; /&gt;&#xA;        &lt;/mxCell&gt;&#xA;        &lt;mxCell id=&quot;rPApMJbNqW60VbOYo9He-13&quot; value=&quot;&quot; style=&quot;sketch=0;pointerEvents=1;shadow=0;dashed=0;html=1;strokeColor=none;fillColor=#505050;labelPosition=center;verticalLabelPosition=bottom;verticalAlign=top;outlineConnect=0;align=center;shape=mxgraph.office.concepts.upload;textShadow=1;&quot; parent=&quot;1&quot; vertex=&quot;1&quot;&gt;&#xA;          &lt;mxGeometry x=&quot;540&quot; y=&quot;1350&quot; width=&quot;48&quot; height=&quot;55&quot; as=&quot;geometry&quot; /&gt;&#xA;        &lt;/mxCell&gt;&#xA;      &lt;/root&gt;&#xA;    &lt;/mxGraphModel&gt;&#xA;  &lt;/diagram&gt;&#xA;&lt;/mxfile&gt;&#xA;"><defs><style type="text/css">@media (prefers-color-scheme: dark) {&#xa;svg.ge-export-svg-auto:not(mjx-container &gt; svg) { filter: invert(100%) hue-rotate(180deg); }&#xa;svg.ge-export-svg-auto foreignObject img,&#xa;svg.ge-export-svg-auto image:not(svg.ge-export-svg-auto switch image),&#xa;svg.ge-export-svg-auto svg:not(mjx-container &gt; svg)&#xa;{ filter: invert(100%) hue-rotate(180deg) }&#xa;}</style><filter id="dropShadow"><feGaussianBlur in="SourceAlpha" stdDeviation="1.7" result="blur"/><feOffset in="blur" dx="3" dy="3" result="offsetBlur"/><feFlood flood-color="#3D4574" flood-opacity="0.4" result="offsetColor"/><feComposite in="offsetColor" in2="offsetBlur" operator="in" result="offsetBlur"/><feBlend in="SourceGraphic" in2="offsetBlur"/></filter></defs><g filter="url(#dropShadow)"><g><path d="M 40 106 L 65 106.5 L 82.63 106.21" fill="none" stroke="rgb(0, 0, 0)" stroke-miterlimit="10" pointer-events="stroke"/><path d="M 87.88 106.12 L 80.94 109.73 L 82.63 106.21 L 80.82 102.74 Z" fill="rgb(0, 0, 0)" stroke="rgb(0, 0, 0)" stroke-miterlimit="10" pointer-events="all"/></g><g><path d="M 167 106.1 L 208.5 106.1 L 208.5 148.5 L 243.63 148.5" fill="none" stroke="rgb(0, 0, 0)" stroke-miterlimit="10" pointer-events="stroke"/><path d="M 248.88 148.5 L 241.88 152 L 243.63 148.5 L 241.88 145 Z" fill="rgb(0, 0, 0)" stroke="rgb(0, 0, 0)" stroke-miterlimit="10" pointer-events="all"/></g><g><path d="M 167 106.1 L 251.1 106.1 L 251.1 73.37" fill="none" stroke="rgb(0, 0, 0)" stroke-miterlimit="10" pointer-events="stroke"/><path d="M 251.1 68.12 L 254.6 75.12 L 251.1 73.37 L 247.6 75.12 Z" fill="rgb(0, 0, 0)" stroke="rgb(0, 0, 0)" stroke-miterlimit="10" pointer-events="all"/></g><g><rect x="89" y="67" width="78" height="78" fill="none" stroke="none" pointer-events="all"/><path d="M 128 131.54 C 117.45 129.38 110.69 121.57 107.9 108.3 C 106.77 102.93 106.5 97.69 106.54 93.51 L 147.09 112.23 C 143.86 123.11 137.46 129.61 128 131.54 M 128 83.68 C 131.93 86.7 138.61 90.13 149.4 91.38 C 149.57 95.9 149.42 102.15 148.05 108.5 C 148.03 108.62 148 108.73 147.97 108.85 L 109.27 90.99 C 118.48 89.52 124.41 86.44 128 83.68 M 151.21 88.11 C 139.3 87 132.62 83.18 129.12 80.17 C 128.47 79.62 127.53 79.62 126.88 80.17 C 123.38 83.18 116.7 87.01 104.78 88.11 C 103.94 88.19 103.27 88.88 103.23 89.73 C 102.97 94.43 102.98 101.59 104.54 109.01 C 107.67 123.89 115.45 132.63 127.68 134.97 C 127.78 135 127.89 135.01 128 135.01 C 128.11 135.01 128.22 135 128.32 134.97 C 140.48 132.64 148.25 123.98 151.41 109.22 C 153 101.78 153.03 94.51 152.77 89.73 C 152.72 88.88 152.06 88.19 151.21 88.11 M 128 139.57 C 96.25 134.1 98.43 92.9 99.19 84.69 C 117.24 83.73 125.04 77.25 128 73.7 C 130.96 77.25 138.76 83.73 156.81 84.69 C 157.57 92.9 159.75 134.1 128 139.57 M 160.06 82.81 C 159.94 81.98 159.25 81.35 158.41 81.32 C 134.97 80.5 129.6 70.05 129.56 69.96 C 129.28 69.36 128.67 68.97 128.01 68.97 L 128 68.97 C 127.34 68.97 126.74 69.35 126.45 69.94 C 126.4 70.05 121.03 80.5 97.59 81.32 C 96.75 81.35 96.06 81.98 95.94 82.81 C 95.87 83.34 89 136.63 127.72 143.01 C 127.81 143.02 127.91 143.03 128 143.03 C 128.09 143.03 128.19 143.02 128.28 143.01 C 167 136.63 160.13 83.34 160.06 82.81" fill="#232f3d" stroke="none" pointer-events="all"/></g><g><rect x="231.05" y="20" width="40" height="47" fill="none" stroke="none" pointer-events="all"/><path d="M 240.86 44.61 L 240.86 42.38 L 261.24 42.38 L 261.24 44.61 Z M 240.86 50.58 L 240.86 48.35 L 261.24 48.35 L 261.24 50.58 Z M 240.86 56.55 L 240.86 54.31 L 261.24 54.31 L 261.24 56.55 Z M 233.31 64.77 L 268.79 64.77 L 268.79 34.18 L 257.47 34.18 L 257.47 22.24 L 233.31 22.24 Z M 231.05 67 L 231.05 20 L 258.97 20 L 271.05 31.94 L 271.05 67 Z" fill="#505050" stroke="none" pointer-events="all"/></g><g><path d="M 229.74 91 L 220 81.25 L 223.89 77.37 L 228.89 82.38 C 231.26 80 233.69 77.61 236.82 75.17 C 239.98 72.72 243.35 71 245 71.08 C 241.88 73.7 238.77 76.97 236.03 80.55 C 233.14 84.24 231.07 87.82 229.74 91 Z" fill="#2d9c5e" stroke="none" pointer-events="all"/></g><g><path d="M 221.9 121 L 229.5 129 L 237.1 121 L 239 123 L 231.4 131 L 239 139 L 237.1 141 L 229.5 133 L 221.9 141 L 220 139 L 227.6 131 L 220 123 Z" fill="#ff0000" stroke="none" pointer-events="all"/></g><g><rect x="211.92" y="0" width="30" height="30" fill="none" stroke="none" pointer-events="all"/><path d="M 217.26 20.97 L 237.68 0.45 C 238.2 0.01 238.96 0 239.35 0.34 L 241.53 2.51 C 241.92 2.99 241.78 3.72 241.43 4.16 L 220.92 24.7 L 212.64 29.79 C 212.31 30 211.92 29.61 212.09 29.24 Z M 217.42 22.37 L 214.7 26.72 L 215.17 27.19 L 219.51 24.48 Z" fill="#505050" stroke="none" pointer-events="all"/></g><g><rect x="0" y="81" width="46" height="50" fill="none" stroke="none" pointer-events="all"/><path d="M 23 105.89 C 16.97 105.89 11.6 100.85 11.6 93.13 C 11.6 87.14 16.14 81 22.79 81 C 29.28 81 34.03 86.94 34.03 93.42 C 34.03 100.91 28.43 105.89 23 105.89 Z M 0 131 C 0.52 125.48 1.22 117.94 2.54 114.13 C 3.15 112.4 4.04 111.16 5.47 110.12 C 6.4 109.43 9.7 107.61 10.31 107.31 C 11.37 106.76 12.46 106.47 13.4 107.31 C 19 112.26 26.74 112.11 32.42 107.33 C 33.08 106.65 34.12 106.83 34.81 107.1 C 35.9 107.52 39.38 109.57 40.04 109.99 C 41.96 111.25 43 112.93 43.77 116.09 C 44.75 120.36 45.33 125.79 46 131 Z" fill="#505050" stroke="none" pointer-events="all"/></g><g><rect x="250" y="121" width="48" height="55" fill="none" stroke="none" pointer-events="all"/><path d="M 268 153.71 L 268 151.48 L 288.25 151.48 L 288.25 153.71 Z M 268 159.66 L 268 157.43 L 288.25 157.43 L 288.25 159.66 Z M 250.75 124.72 L 250.75 121 L 265.75 121 L 265.75 124.72 Z M 256 148.5 L 256 133.64 L 250 139.57 L 250 135.13 L 258.25 126.95 L 266.5 135.13 L 266.5 139.57 L 260.5 133.64 L 260.5 148.5 Z M 268 165.6 L 268 163.37 L 288.25 163.37 L 288.25 165.6 Z M 258.25 176 L 258.25 150.73 L 260.5 150.74 L 260.5 173.78 L 295.75 173.78 L 295.75 143.29 L 284.5 143.29 L 284.5 131.42 L 265.9 131.42 L 263.65 129.18 L 286 129.18 L 298 141.07 L 298 176 Z" fill="#505050" stroke="none" pointer-events="all"/></g></g></svg>